# xmcd CD database file
#
# Track frame offsets:
#	150
#	33368
#	55781
#	90963
#	121328
#	150251
#	168118
#	183613
#
# Disc length: 2829 seconds
#
# Revision: 0
# Processed by: cddbd v1.5.1PL2 Copyright (c) Steve Scherf et al.
# Submitted via: CDex 1.70beta1
#
DISCID=510b0b08
DTITLE=Joana Machado - Crude
DYEAR=2006
DGENRE=Jazz
TTITLE0='Round Midnight
TTITLE1=Ana Luiza
TTITLE2=Roda Dentada
TTITLE3=When Sunny gets blue
TTITLE4=Ginga Carioca
TTITLE5=Day Dream
TTITLE6=Tema da Joana
TTITLE7=Contemplation
EXTD=YEAR: 2006
EXTT0=
EXTT1=
EXTT2=
EXTT3=
EXTT4=
EXTT5=
EXTT6=
EXTT7=
PLAYORDER=
